<?xml version="1.0" encoding="utf-8"?>
<!-- Generator: Adobe Illustrator 25.0.0, SVG Export Plug-In . SVG Version: 6.00 Build 0)  -->
<svg version="1.1" id="Livello_1" xmlns="http://www.w3.org/2000/svg" xmlns:xlink="http://www.w3.org/1999/xlink" x="0px" y="0px"
	 viewBox="0 0 1920 1080" style="enable-background:new 0 0 1920 1080;" xml:space="preserve">
<style type="text/css">
	.st0{fill:#7E57C2;}
	.st1{fill:none;stroke:#673AB7;stroke-width:7;stroke-miterlimit:10;}
	.st2{fill:none;stroke:#673AB7;stroke-width:6.8242;stroke-miterlimit:10;}
	.st3{fill:none;stroke:#673AB7;stroke-width:6.6483;stroke-miterlimit:10;}
	.st4{fill:none;stroke:#673AB7;stroke-width:6.4725;stroke-miterlimit:10;}
	.st5{fill:none;stroke:#673AB7;stroke-width:6.2967;stroke-miterlimit:10;}
	.st6{fill:none;stroke:#673AB7;stroke-width:6.1208;stroke-miterlimit:10;}
	.st7{fill:none;stroke:#673AB7;stroke-width:5.945;stroke-miterlimit:10;}
	.st8{fill:none;stroke:#673AB7;stroke-width:5.7692;stroke-miterlimit:10;}
	.st9{fill:none;stroke:#673AB7;stroke-width:5.5934;stroke-miterlimit:10;}
	.st10{fill:none;stroke:#673AB7;stroke-width:5.4175;stroke-miterlimit:10;}
	.st11{fill:none;stroke:#673AB7;stroke-width:5.2417;stroke-miterlimit:10;}
</style>
<g>
	<rect x="-25.27" y="-25" class="st0" width="1976.36" height="1132.73"/>
</g>
<g>
	<path class="st1" d="M79.02-237.43c20.45,17.83,203.66-15.73,291.24,33.98c68.45,38.85,91.23,84.16,88.99,189.3
		c-3.24,152.09,245.93,166.65,76.04,292.31c-121.41,89.8-53.67,217.96-63.1,345.17c-3.7,49.95-244.3,202.17-127.82,328.45
		c173.12,187.69,15.75-4.26,113.26,126.74c101.66,136.58,257.75,168.24,343.01,185.53c198.98,40.35,363.93-15.49,440.09-47.46"/>
	<path class="st2" d="M29.8-185.17c21.6,20.35,188.9-6.36,268.93,42.19c63.34,38.43,84.33,82.75,82.46,180.21
		c-0.81,45.35,20.77,78.05,45.68,105.35c54.2,59.4,124.15,92.88,17.58,173.09c-96.71,73.22-66.96,172.24-62.3,276.81
		c0.72,16.07,0.79,32.57-0.45,49.31c-3.6,48.79-219.95,192.87-110.67,312.39c157,170.48,16.78-0.9,106.12,118.18
		c94.56,125.19,238.78,155.19,319.6,171.46c183.25,37.04,336.24-13.32,409.35-43.07"/>
	<path class="st3" d="M-19.41-132.91c22.76,22.86,174.13,3.06,246.62,50.41c58.23,38.03,77.44,81.35,75.93,171.12
		c-0.61,42.69,18.43,73.8,40.1,99.97c47.36,57.22,107.05,89.89,10.39,164.6c-88.83,68.66-65.23,160.87-61.71,260.62
		c0.52,14.81,0.51,30.38-0.68,46.45c-3.5,47.63-196.02,183.96-93.52,296.32c140.3,153.81,17.43,2.75,98.99,109.61
		c87.07,114.09,219.81,142.13,296.19,157.39c167.52,33.74,308.54-11.14,378.61-38.68"/>
	<path class="st4" d="M-68.63-80.65C-44.72-55.27,90.72-68.1,155.68-22.02c53.12,37.68,70.38,79.94,69.4,162.02
		c-0.48,40.03,16.09,69.56,34.51,94.58c40.52,55.06,90.06,87.06,3.19,156.11c-80.84,64.25-63.48,149.48-61.12,244.43
		c0.34,13.54,0.23,28.19-0.9,43.59c-3.4,46.46-171.88,174.84-76.37,280.26c123.95,136.81,18.3,6.25,91.86,101.05
		c79.79,102.84,200.84,129.08,272.78,143.33c151.79,30.43,280.85-8.96,347.87-34.29"/>
	<path class="st5" d="M-117.85-28.39c25.07,27.9,144.56,22.11,202,66.84c48.01,37.39,63.45,78.53,62.86,152.93
		c-0.29,37.37,13.75,65.34,28.92,89.2c33.67,52.95,73.09,84.27-4.01,147.62c-72.84,59.85-61.7,138.09-60.54,228.24
		c0.16,12.27-0.06,26-1.13,40.74c-3.3,45.3-147.73,165.71-59.21,264.2c107.64,119.78,19.18,9.73,84.72,92.49
		c72.53,91.58,181.86,116.03,249.36,129.26c136.06,27.12,253.16-6.79,317.13-29.91"/>
	<path class="st6" d="M-167.07,23.87c26.22,30.41,129.73,31.76,179.69,75.06c42.88,37.16,56.53,77.13,56.33,143.84
		c-0.1,34.71,11.39,61.14,23.34,83.81c26.8,50.88,56.14,81.5-11.2,139.13C16.26,521.19,21.23,592.4,21.14,677.75
		c-0.01,11-0.34,23.81-1.36,37.88c-3.2,44.14-123.57,156.56-42.06,248.14c91.39,102.68,20.09,13.2,77.59,83.92
		c65.29,80.32,162.92,102.85,225.95,115.19c120.38,23.57,225.47-4.61,286.39-25.52"/>
	<path class="st7" d="M-216.29,76.13c27.38,32.93,114.85,41.52,157.39,83.27c37.71,37.01,49.63,75.72,49.8,134.74
		c0.09,32.05,9.02,56.97,17.75,78.43c19.89,48.86,39.21,78.77-18.4,130.64c-56.81,51.15-57.97,115.29-59.36,195.86
		c-0.17,9.73-0.62,21.61-1.59,35.03c-3.1,42.98-99.39,147.39-24.91,232.08c75.21,85.52,21.05,16.64,70.45,75.36
		c58.08,69.04,143.95,89.78,202.54,101.12c104.65,20.26,197.78-2.44,255.65-21.13"/>
	<path class="st8" d="M-265.51,128.39c28.53,35.45,99.88,51.4,135.08,91.49c32.46,36.97,42.75,74.32,43.27,125.65
		c0.3,29.39,6.6,52.82,12.16,73.04c12.89,46.9,22.32,76.09-25.59,122.15c-48.75,46.86-55.98,103.88-58.78,179.67
		c-0.31,8.46-0.9,19.42-1.82,32.17c-2.99,41.82-75.17,138.19-7.76,216.01c59.13,68.27,22.07,20.04,63.32,66.8
		c50.93,57.73,124.97,76.72,179.13,87.06c88.91,16.96,170.09-0.26,224.91-16.74"/>
	<path class="st9" d="M-314.73,180.65c29.69,37.96,84.76,61.4,112.77,99.7c27.09,37.04,35.89,72.91,36.74,116.56
		c0.52,26.74,4.14,48.68,6.58,67.65c5.78,44.97,5.49,73.49-32.79,113.66c-40.63,42.65-53.84,92.47-58.19,163.47
		c-0.44,7.19-1.18,17.23-2.04,29.31c-2.89,40.66-50.88,128.9,9.39,199.95c43.18,50.9,23.19,23.37,56.18,58.23
		c43.88,46.36,106,63.68,155.72,72.99c73.17,13.7,142.4,1.91,194.17-12.35"/>
	<path class="st10" d="M-363.95,232.91c30.84,40.48,69.43,71.5,90.46,107.92c21.49,37.21,29.07,71.5,30.21,107.46
		c0.76,24.08,1.61,44.52,0.99,62.27c-1.5,43-11.24,70.98-39.98,105.17c-32.4,38.53-51.48,81.1-57.6,147.28
		c-0.55,5.92-1.46,15.04-2.27,26.46c-2.79,39.5-26.37,119.44,26.54,183.89c27.4,33.38,24.47,26.56,49.05,49.67
		c37.03,34.81,87.02,50.67,132.31,58.92c57.43,10.46,114.71,4.09,163.44-7.96"/>
	<path class="st11" d="M-413.16,285.17c92.95,124.91,100.03,212.77,87.23,271.39c-19.92,91.27-89.1,116.67-104.19,227.77
		c-2.89,21.27-15.8,116.33,41.19,191.43c58.2,76.69,169.81,106.88,283.51,82.39"/>
</g>
<g>
	<path class="st1" d="M1838.29-237.43c-20.45,17.83-203.66-15.73-291.24,33.98c-68.45,38.85-91.23,84.16-88.99,189.3
		c3.24,152.09-245.93,166.65-76.04,292.31c121.41,89.8,53.67,217.96,63.1,345.17c3.7,49.95,244.3,202.17,127.82,328.45
		c-173.12,187.69-15.75-4.26-113.26,126.74c-101.66,136.58-257.75,168.24-343.01,185.53c-198.98,40.35-363.93-15.49-440.09-47.46"/>
	<path class="st2" d="M1887.51-185.17c-21.6,20.35-188.9-6.36-268.93,42.19c-63.34,38.43-84.33,82.75-82.46,180.21
		c0.81,45.35-20.77,78.05-45.68,105.35c-54.2,59.4-124.15,92.88-17.58,173.09c96.71,73.22,66.96,172.24,62.3,276.81
		c-0.72,16.07-0.79,32.57,0.45,49.31c3.6,48.79,219.95,192.87,110.67,312.39c-157,170.48-16.78-0.9-106.12,118.18
		c-94.56,125.19-238.78,155.19-319.6,171.46c-183.25,37.04-336.24-13.32-409.35-43.07"/>
	<path class="st3" d="M1936.73-132.91c-22.76,22.86-174.13,3.06-246.62,50.41c-58.23,38.03-77.44,81.35-75.93,171.12
		c0.61,42.69-18.43,73.8-40.1,99.97c-47.36,57.22-107.05,89.89-10.39,164.6c88.83,68.66,65.23,160.87,61.71,260.62
		c-0.52,14.81-0.51,30.38,0.68,46.45c3.5,47.63,196.02,183.96,93.52,296.32c-140.3,153.81-17.43,2.75-98.99,109.61
		c-87.07,114.09-219.81,142.13-296.19,157.39c-167.52,33.74-308.54-11.14-378.61-38.68"/>
	<path class="st4" d="M1985.95-80.65c-23.91,25.38-159.35,12.55-224.31,58.63c-53.12,37.68-70.38,79.94-69.4,162.02
		c0.48,40.03-16.09,69.56-34.51,94.58c-40.52,55.06-90.06,87.06-3.19,156.11c80.84,64.25,63.48,149.48,61.12,244.43
		c-0.34,13.54-0.23,28.19,0.9,43.59c3.4,46.46,171.88,174.84,76.37,280.26c-123.95,136.81-18.3,6.25-91.86,101.05
		c-79.79,102.84-200.84,129.08-272.78,143.33c-151.79,30.43-280.85-8.96-347.87-34.29"/>
	<path class="st5" d="M2035.17-28.39c-25.07,27.9-144.56,22.11-202,66.84c-48.01,37.39-63.45,78.53-62.86,152.93
		c0.29,37.37-13.75,65.34-28.92,89.2c-33.67,52.95-73.09,84.27,4.01,147.62c72.84,59.85,61.7,138.09,60.54,228.24
		c-0.16,12.27,0.06,26,1.13,40.74c3.3,45.3,147.73,165.71,59.21,264.2c-107.64,119.78-19.18,9.73-84.72,92.49
		c-72.53,91.58-181.86,116.03-249.36,129.26c-136.06,27.12-253.16-6.79-317.13-29.91"/>
	<path class="st6" d="M2084.39,23.87c-26.22,30.41-129.73,31.76-179.69,75.06c-42.88,37.16-56.53,77.13-56.33,143.84
		c0.1,34.71-11.39,61.14-23.34,83.81c-26.8,50.88-56.14,81.5,11.2,139.13c64.83,55.49,59.87,126.69,59.95,212.05
		c0.01,11,0.34,23.81,1.36,37.88c3.2,44.14,123.57,156.56,42.06,248.14c-91.39,102.68-20.09,13.2-77.59,83.92
		c-65.29,80.32-162.92,102.85-225.95,115.19c-120.38,23.57-225.47-4.61-286.39-25.52"/>
	<path class="st7" d="M2133.6,76.13c-27.38,32.93-114.85,41.52-157.39,83.27c-37.71,37.01-49.63,75.72-49.8,134.74
		c-0.09,32.05-9.02,56.97-17.75,78.43c-19.89,48.86-39.21,78.77,18.4,130.64c56.81,51.15,57.97,115.29,59.36,195.86
		c0.17,9.73,0.62,21.61,1.59,35.03c3.1,42.98,99.39,147.39,24.91,232.08c-75.21,85.52-21.05,16.64-70.45,75.36
		c-58.08,69.04-143.95,89.78-202.54,101.12c-104.65,20.26-197.78-2.44-255.65-21.13"/>
	<path class="st8" d="M2182.82,128.39c-28.53,35.45-99.88,51.4-135.08,91.49c-32.46,36.97-42.75,74.32-43.27,125.65
		c-0.3,29.39-6.6,52.82-12.16,73.04c-12.89,46.9-22.32,76.09,25.59,122.15c48.75,46.86,55.98,103.88,58.78,179.67
		c0.31,8.46,0.9,19.42,1.82,32.17c2.99,41.82,75.17,138.19,7.76,216.01c-59.13,68.27-22.07,20.04-63.32,66.8
		c-50.93,57.73-124.97,76.72-179.13,87.06c-88.91,16.96-170.09-0.26-224.91-16.74"/>
	<path class="st9" d="M2232.04,180.65c-29.69,37.96-84.76,61.4-112.77,99.7c-27.09,37.04-35.89,72.91-36.74,116.56
		c-0.52,26.74-4.14,48.68-6.58,67.65c-5.78,44.97-5.49,73.49,32.79,113.66c40.63,42.65,53.84,92.47,58.19,163.47
		c0.44,7.19,1.18,17.23,2.04,29.31c2.89,40.66,50.88,128.9-9.39,199.95c-43.18,50.9-23.19,23.37-56.18,58.23
		c-43.88,46.36-106,63.68-155.72,72.99c-73.17,13.7-142.4,1.91-194.17-12.35"/>
	<path class="st10" d="M2281.26,232.91c-30.84,40.48-69.43,71.5-90.46,107.92c-21.49,37.21-29.07,71.5-30.21,107.46
		c-0.76,24.08-1.61,44.52-0.99,62.27c1.5,43,11.24,70.98,39.98,105.17c32.4,38.53,51.48,81.1,57.6,147.28
		c0.55,5.92,1.46,15.04,2.27,26.46c2.79,39.5,26.37,119.44-26.54,183.89c-27.4,33.38-24.47,26.56-49.05,49.67
		c-37.03,34.81-87.02,50.67-132.31,58.92c-57.43,10.46-114.71,4.09-163.44-7.96"/>
	<path class="st11" d="M2330.48,285.17c-92.95,124.91-100.03,212.77-87.23,271.39c19.92,91.27,89.1,116.67,104.19,227.77
		c2.89,21.27,15.8,116.33-41.19,191.43c-58.2,76.69-169.81,106.88-283.51,82.39"/>
</g>
</svg>
